<?xml version="1.0" encoding="UTF-8" standalone="no"?>
<!-- Uploaded to: SVG Repo, www.svgrepo.com, Generator: SVG Repo Mixer Tools -->

<svg
   width="800px"
   height="800px"
   viewBox="0 -4 28 28"
   fill="none"
   version="1.1"
   id="svg22"
   sodipodi:docname="flag-tr-svgrepo-com.svg"
   xml:space="preserve"
   inkscape:version="1.2.1 (9c6d41e410, 2022-07-14)"
   xmlns:inkscape="http://www.inkscape.org/namespaces/inkscape"
   xmlns:sodipodi="http://sodipodi.sourceforge.net/DTD/sodipodi-0.dtd"
   xmlns="http://www.w3.org/2000/svg"
   xmlns:svg="http://www.w3.org/2000/svg"><sodipodi:namedview
     id="namedview24"
     pagecolor="#ffffff"
     bordercolor="#666666"
     borderopacity="1.0"
     inkscape:showpageshadow="2"
     inkscape:pageopacity="0.0"
     inkscape:pagecheckerboard="0"
     inkscape:deskcolor="#d1d1d1"
     showgrid="false"
     inkscape:zoom="0.529375"
     inkscape:cx="378.74852"
     inkscape:cy="612.0425"
     inkscape:window-width="1920"
     inkscape:window-height="1027"
     inkscape:window-x="1912"
     inkscape:window-y="-8"
     inkscape:window-maximized="1"
     inkscape:current-layer="g15" /><g
     clip-path="url(#clip0_503_4206)"
     id="g15"><rect
       width="28"
       height="20"
       rx="2"
       fill="white"
       id="rect2" /><rect
       width="28"
       height="20"
       fill="#e92434"
       id="rect7"
       x="0"
       y="0"
       mask="url(#mask1099)"
       style="fill:#00b8fd;fill-opacity:1" /><path
       fill-rule="evenodd"
       clip-rule="evenodd"
       d="m 19.0208,10.7684 -1.2248,1.4849 0.0835,-1.9231 -1.7908,-0.70597 1.8547,-0.51493 0.1181,-1.92131 1.0629,1.60488 1.8637,-0.48145 -1.1979,1.5068 1.0339,1.62378 -1.8033,-0.6736 v 0 z"
       fill="#ffffff"
       id="path9"
       mask="url(#mask1093)" /><path
       fill-rule="evenodd"
       clip-rule="evenodd"
       d="M 17.4028,13.6838 C 16.3049,15.0934 14.5916,16 12.6665,16 c -3.3137,0 -6,-2.6863 -6,-6 0,-3.31371 2.6863,-6 6,-6 1.9251,0 3.6384,0.90659 4.7363,2.31611 -0.8473,-0.61592 -1.9126,-0.9828 -3.0698,-0.9828 -2.7614,0 -4.99999,2.08934 -4.99999,4.66667 0,2.57732 2.23859,4.66662 4.99999,4.66662 1.1572,0 2.2226,-0.3669 3.0698,-0.9828 z"
       fill="#ffffff"
       id="path11"
       mask="url(#mask1087)" /></g><defs
     id="defs20"><clipPath
       id="clip0_503_4206"><rect
         width="28"
         height="20"
         rx="2"
         fill="white"
         id="rect17" /></clipPath><mask
       maskUnits="userSpaceOnUse"
       id="mask1087"><g
         id="g1091"><rect
           width="28"
           height="20"
           rx="2"
           fill="#ffffff"
           id="rect1089"
           x="0"
           y="0" /></g></mask><mask
       maskUnits="userSpaceOnUse"
       id="mask1093"><g
         id="g1097"><rect
           width="28"
           height="20"
           rx="2"
           fill="#ffffff"
           id="rect1095"
           x="0"
           y="0" /></g></mask><mask
       maskUnits="userSpaceOnUse"
       id="mask1099"><g
         id="g1103"><rect
           width="28"
           height="20"
           rx="2"
           fill="#ffffff"
           id="rect1101"
           x="0"
           y="0" /></g></mask></defs></svg>
